<?xml version="1.0" encoding="utf-8"?>
<!-- Generator: Adobe Illustrator 16.0.0, SVG Export Plug-In . SVG Version: 6.00 Build 0)  -->
<!DOCTYPE svg PUBLIC "-//W3C//DTD SVG 1.1//EN" "http://www.w3.org/Graphics/SVG/1.1/DTD/svg11.dtd">
<svg version="1.1" id="Capa_1" xmlns="http://www.w3.org/2000/svg" xmlns:xlink="http://www.w3.org/1999/xlink" x="0px" y="0px"
	 width="400px" height="300px" viewBox="0 0 788.28 730" enable-background="new 0 0 788.28 730" xml:space="preserve">
<g id="_x31_">
	<g>
		<g>
			<rect x="1.5" y="0.5" fill="#FBB994" stroke="#010101" stroke-miterlimit="10" width="785.28" height="729"/>
			
				<rect x="1.5" y="549.645" fill="#693316" stroke="#010101" stroke-width="3" stroke-miterlimit="10" width="785.28" height="110.855"/>
			<polygon fill="#3D1E13" stroke="#010101" stroke-width="3" stroke-miterlimit="10" points="786.78,628.5 9.5,628.5 1.5,628.5 
				1.5,660.5 786.78,660.5 			"/>
		</g>
		<polyline opacity="0.7" fill="#030303" enable-background="new    " points="1.5,622.833 1.5,605.071 1.5,591.068 1.5,584.12 
			1.5,567.761 1.5,557.813 1.5,549.645 14.833,549.645 27.5,549.645 74.166,549.645 124.166,549.645 197.5,549.645 238.833,549.645 
			274.833,549.645 292.757,549.645 283.601,583.587 267,617.373 242,628.5 104.5,628.5 29,628.5 1.5,628.5 		"/>
		<g>
			<g>
				<g>
					<g>
						<defs>
							<circle id="SVGID_1_" cx="380.607" cy="457.729" r="123"/>
						</defs>
						<clipPath id="SVGID_2_">
							<use xlink:href="#SVGID_1_"  overflow="visible"/>
						</clipPath>
						<g opacity="0.7" clip-path="url(#SVGID_2_)">
							
								<image overflow="visible" enable-background="new    " width="804" height="700" xlink:href="1FB92942.jpg"  transform="matrix(0.3644 0 0 0.3645 228.7744 325.6221)">
							</image>
						</g>
					</g>
					<g>
						
							<circle id="XMLID_2_" fill="none" stroke="#010101" stroke-width="3" stroke-miterlimit="10" cx="380.607" cy="457.729" r="123"/>
					</g>
				</g>
				<path fill="#3E2B1D" stroke="#010101" stroke-miterlimit="10" d="M292.757,571.978"/>
				<polyline fill="#3E2B1D" points="262.703,617.373 261.795,617.245 254.726,615.103 250.145,611.853 247.795,607.456 
					248.061,603.581 252.238,599.257 259.413,596.141 263.764,595.417 272.045,595.287 279.045,595.287 292.757,595.287 
					301.295,595.287 314.545,595.287 334.295,595.287 347.295,595.287 359.045,595.287 384.795,595.287 420.295,595.287 
					438.295,595.287 463.045,595.287 484.795,595.287 494.795,595.287 507.795,596.303 512.784,598.281 518.051,603.336 
					518.051,609.561 511.6,615.229 503.887,617.373 				"/>
				<polyline fill="#3E2B1D" points="518.795,608.456 518.795,603.456 514.695,613.402 				"/>
				<line fill="none" x1="514.696" y1="613.4" x2="513.219" y2="614.38"/>
				<path fill="#3E2B1D" stroke="#010101" stroke-miterlimit="10" d="M292.757,481.978"/>
				<polyline fill="#3E2B1D" points="270.372,595.11 266.77,593.775 262.872,591.168 260.44,587.949 259.649,583.899 
					260.807,580.278 263.051,577.581 265.577,575.771 270.732,573.71 274.651,573.051 279.795,573.051 288.295,572.953 
					295.732,572.953 308.17,572.953 318.295,572.953 329.357,572.953 339.42,572.953 362.732,572.953 370.732,572.953 
					378.17,572.953 387.295,572.953 408.42,572.953 423.74,572.953 433.232,572.953 446.795,572.953 457.232,572.953 
					468.545,572.953 477.357,572.953 485.232,572.953 491.67,572.953 496.127,573.572 499.102,574.471 503.415,576.802 
					506.352,579.851 507.455,582.18 507.795,584.458 507.795,586.493 506.206,589.282 504.04,591.616 501.598,593.286 
					498.072,594.808 493.872,595.745 				"/>
				<path fill="#3E2B1D" d="M270.372,594.461"/>
				<polyline fill="#3E2B1D" points="283.762,571.774 278.384,570.191 274.307,567.36 272.212,564.396 271.408,560.812 
					271.901,557.984 273.513,555.145 276.583,552.432 281.256,550.365 285.116,549.702 287.795,549.645 322.961,549.645 
					347.378,549.645 361.878,549.645 374.461,549.645 393.211,549.645 446.295,549.645 458.045,549.645 471.295,549.645 
					477.74,549.806 481.405,550.622 484.365,551.911 488.877,555.927 489.807,557.698 490.408,560.039 490.408,562.289 
					489.237,565.11 487.094,567.761 482.461,570.619 478.379,571.978 				"/>
				<path opacity="0.6" fill="#010101" enable-background="new    " d="M264.289,617.529l-7.591-1.593l-6.554-4.085l-2.35-5.397
					l1.926-4.919l4.338-3.393l5.354-2.003l6.507-0.758l4.452-0.271v-0.649c-3.609-1.299-7.687-3.994-7.687-3.994l-2.246-2.518
					l-0.791-7.222l3.402-3.147l4.761-2.957l4.872-1.331l4.212-0.34h5.399h4.125l0.227-0.976l-2.884-0.202l-2.945-0.646l-3.513-1.688
					l-3.835-3.025l-2.061-4.961l1.318-5.187l3.301-3.464l6.393-3.161h6.375h5.25h4c21.417,0,2.417,0,21.417,0s-62.833,0,19,0
					c81.833,0,36,0,36,0h28.333h27.666h22.334h9.543"/>
				<path fill="none" stroke="#010101" stroke-width="3" stroke-miterlimit="10" d="M518.795,606.454
					c0,6.167-8.441,11.166-18.855,11.166H266.652c-10.414,0-18.856-4.999-18.856-11.166l0,0c0-6.169,8.442-11.167,18.856-11.167
					h233.287C510.352,595.287,518.795,600.286,518.795,606.454L518.795,606.454z"/>
				<g>
					<polyline fill="#3E2B1D" points="507.113,586.122 507.113,581.122 503.012,591.068 					"/>
					<path fill="none" stroke="#010101" stroke-width="3" stroke-miterlimit="10" d="M507.795,584.12
						c0,6.167-7.73,11.167-17.268,11.167H276.896c-2.31,0-4.514-0.294-6.528-0.826c-1.287-0.34-2.496-0.777-3.605-1.298
						c-1.583-0.743-2.963-1.655-4.077-2.696c-0.304-0.284-0.587-0.577-0.85-0.879c-0.25-0.288-0.482-0.584-0.693-0.889
						c-0.462-0.662-0.827-1.359-1.082-2.085c-0.283-0.803-0.433-1.638-0.433-2.494l0,0c0-1.768,0.634-3.438,1.764-4.923
						c2.813-3.698,8.699-6.244,15.504-6.244h213.631C500.064,572.953,507.795,577.953,507.795,584.12L507.795,584.12z"/>
				</g>
				<g>
					<polyline fill="#3E2B1D" points="489.807,562.813 489.807,557.813 486.188,567.761 					"/>
					<path fill="none" stroke="#010101" stroke-width="3" stroke-miterlimit="10" d="M490.408,560.812
						c0,6.167-6.822,11.166-15.238,11.166H286.647c-8.416,0-15.238-4.999-15.238-11.166l0,0c0-6.168,6.822-11.167,15.238-11.167
						H475.17C483.586,549.645,490.408,554.644,490.408,560.812L490.408,560.812z"/>
				</g>
				<path fill="#FFFFFF" stroke="#010101" stroke-miterlimit="10" d="M283.601,595.287"/>
				<path fill="#FFFFFF" stroke="#010101" stroke-miterlimit="10" d="M294.623,571.978"/>
				<path fill="none" stroke="#010101" stroke-miterlimit="10" d="M316.045,588.206"/>
			</g>
		</g>
	</g>
</g>
</svg>
